<?xml version="1.0" encoding="utf-8"?>
<!-- Generator: Adobe Illustrator 21.0.2, SVG Export Plug-In . SVG Version: 6.00 Build 0)  -->
<svg version="1.1" id="レイヤー_1" xmlns="http://www.w3.org/2000/svg" xmlns:xlink="http://www.w3.org/1999/xlink" x="0px"
	 y="0px" viewBox="0 0 16 16" style="enable-background:new 0 0 16 16;" xml:space="preserve">
<style type="text/css">
	.st0{fill:#FFFFFF;}
</style>
<g>
	<path class="st0" d="M6.2,7.8c0,0-0.1,0-0.1,0c-0.2,0-2.9,0-3.6,0c-0.2,0-0.5,0-0.6,0c-0.2,0-0.3,0-0.3,0c-0.2,0-0.4,0-0.6,0.1
		C0.7,8.1,0.4,8.3,0.3,8.5C0.1,8.7,0,9,0,9.3v2.8h0.4H16V9.3c0-0.2,0-0.4-0.1-0.5c-0.1-0.3-0.3-0.5-0.6-0.6
		c-0.2-0.2-0.5-0.2-0.9-0.2c0,0-0.9,0-1.3,0c-0.4,0-1.5,0-1.9,0c-0.2,0-0.4,0-0.5,0c-0.1,0-0.1,0-0.2,0c0,0,0,0-0.1,0"/>
	<rect x="2.5" y="13.2" class="st0" width="11.3" height="1.2"/>
</g>
<path class="st0" d="M9.8,8.5c0,0-0.5-0.3-0.5-1.6s1.3-1.6,1.2-3.9c0-2.4-2.6-2.2-2.6-2.2S5.3,0.7,5.3,3.2C5.3,5,6.7,5.6,6.7,7
	s-1,1.5-1,1.5H9.8z"/>
</svg>
